<?xml version="1.0" encoding="UTF-8"?>
<svg version="1.1" xmlns="http://www.w3.org/2000/svg" width="500" height="500">
<path d="M0 0 C165 0 330 0 500 0 C500 165 500 330 500 500 C335 500 170 500 0 500 C0 335 0 170 0 0 Z " fill="#FEFEFE" transform="translate(0,0)"/>
<path d="M0 0 C15.60569112 15.96861417 19.20477716 34.14568183 19.10913086 55.70141602 C18.7788837 71.38652142 15.36358886 88.33337978 3.6875 99.75 C-5.18620515 107.29792237 -15.50770073 112.92640935 -27.3125 113.75 C-25.09101792 118.19296417 -22.58103664 120.26002029 -18.3125 122.75 C-15.42366225 123.71294592 -13.67382798 123.85507913 -10.6796875 123.8125 C-9.79152344 123.80476562 -8.90335937 123.79703125 -7.98828125 123.7890625 C-7.06402344 123.77617187 -6.13976562 123.76328125 -5.1875 123.75 C-3.3516199 123.72460747 -1.51567318 123.70353481 0.3203125 123.6875 C1.13387207 123.67589844 1.94743164 123.66429687 2.78564453 123.65234375 C4.6875 123.75 4.6875 123.75 5.6875 124.75 C7.21770433 131.10537418 7.93363739 137.22735909 7.6875 143.75 C-6.10170344 147.68977241 -20.63858756 147.09644056 -33.31640625 140.08984375 C-40.73467045 135.17461291 -47.02608754 128.47207511 -49.02734375 119.5703125 C-50.09195617 116.40385037 -50.09195617 116.40385037 -53.65625 115.28125 C-55.03663559 114.91782323 -56.42258265 114.57507409 -57.8125 114.25 C-69.83556104 110.93583105 -80.58078734 104.95016012 -87.39697266 94.00927734 C-89.61794803 90.0342901 -91.51446956 85.93348559 -93.3125 81.75 C-93.663125 80.99332031 -94.01375 80.23664063 -94.375 79.45703125 C-97.34911592 70.86927153 -97.62316596 62.394006 -97.5625 53.375 C-97.57023437 52.23289062 -97.57796875 51.09078125 -97.5859375 49.9140625 C-97.54611231 32.39097689 -93.43044425 16.16339848 -81.54296875 2.75390625 C-59.52742307 -18.05657798 -23.61793109 -17.53743393 0 0 Z " fill="#020202" transform="translate(113.3125,115.25)"/>
<path d="M0 0 C15.60569112 15.96861417 19.20477716 34.14568183 19.10913086 55.70141602 C18.7788837 71.38652142 15.36358886 88.33337978 3.6875 99.75 C-5.18620515 107.29792237 -15.50770073 112.92640935 -27.3125 113.75 C-25.09101792 118.19296417 -22.58103664 120.26002029 -18.3125 122.75 C-15.42366225 123.71294592 -13.67382798 123.85507913 -10.6796875 123.8125 C-9.79152344 123.80476562 -8.90335937 123.79703125 -7.98828125 123.7890625 C-7.06402344 123.77617187 -6.13976562 123.76328125 -5.1875 123.75 C-3.3516199 123.72460747 -1.51567318 123.70353481 0.3203125 123.6875 C1.13387207 123.67589844 1.94743164 123.66429687 2.78564453 123.65234375 C4.6875 123.75 4.6875 123.75 5.6875 124.75 C6.08952391 126.99194353 6.4341095 129.24430782 6.75 131.5 C6.92660156 132.73234375 7.10320312 133.9646875 7.28515625 135.234375 C7.6158042 138.12353186 7.77053929 140.84916094 7.6875 143.75 C-6.10170344 147.68977241 -20.63858756 147.09644056 -33.31640625 140.08984375 C-40.73467045 135.17461291 -47.02608754 128.47207511 -49.02734375 119.5703125 C-50.09195617 116.40385037 -50.09195617 116.40385037 -53.65625 115.28125 C-55.03663559 114.91782323 -56.42258265 114.57507409 -57.8125 114.25 C-69.83556104 110.93583105 -80.58078734 104.95016012 -87.39697266 94.00927734 C-89.61794803 90.0342901 -91.51446956 85.93348559 -93.3125 81.75 C-93.663125 80.99332031 -94.01375 80.23664063 -94.375 79.45703125 C-97.34911592 70.86927153 -97.62316596 62.394006 -97.5625 53.375 C-97.57023437 52.23289062 -97.57796875 51.09078125 -97.5859375 49.9140625 C-97.54611231 32.39097689 -93.43044425 16.16339848 -81.54296875 2.75390625 C-59.52742307 -18.05657798 -23.61793109 -17.53743393 0 0 Z " fill="#020202" transform="translate(167.3125,289.25)"/>
<path d="M0 0 C4.02202261 2.0177371 6.26167228 4.68385059 8.4375 8.5625 C9 11 9 11 9 16 C14.61 16 20.22 16 26 16 C26 23.26 26 30.52 26 38 C49.76 38 73.52 38 98 38 C98 59.68894289 98 59.68894289 90.75415039 67.51586914 C90.24875732 67.97598389 89.74336426 68.43609863 89.22265625 68.91015625 C86.38080194 71.59426813 83.9236102 74.4247377 81.5 77.5 C78.06790899 81.72793821 74.55418463 85.87500529 71 90 C61.00475452 101.61364712 61.00475452 101.61364712 52 114 C67.18 114 82.36 114 98 114 C98 120.27 98 126.54 98 133 C73.58 133 49.16 133 24 133 C24 111.30428743 24 111.30428743 30.43823242 104.29174805 C30.90592041 103.86933838 31.3736084 103.44692871 31.85546875 103.01171875 C35.05109003 100.00332166 37.83279861 96.7553987 40.625 93.375 C41.54468684 92.28701079 42.46524665 91.19975885 43.38671875 90.11328125 C46.50223358 86.41538468 49.54632698 82.66032183 52.59375 78.90625 C54.42481248 76.694707 56.27552175 74.51243664 58.15625 72.34375 C58.69967041 71.71654053 59.24309082 71.08933105 59.80297852 70.44311523 C60.87003419 69.21540353 61.9406834 67.99080331 63.01538086 66.76977539 C65.51031334 63.89967747 67.28282302 61.43435396 69 58 C54.81 58 40.62 58 26 58 C26 66.58 26 75.16 26 84 C19.4 84 12.8 84 6 84 C6 100.17 6 116.34 6 133 C-1.92 133 -9.84 133 -18 133 C-18 116.83 -18 100.66 -18 84 C-24.93 84 -31.86 84 -39 84 C-39 61.56 -39 39.12 -39 16 C-33.06 16 -27.12 16 -21 16 C-21 13.69 -21 11.38 -21 9 C-16.02675761 -0.23602158 -10.04142535 -1.5147649 0 0 Z " fill="#B3D883" transform="translate(337,271)"/>
<path d="M0 0 C1.38052257 0.7447556 2.73645289 1.53708441 4.0625 2.375 C4.75859375 2.79910156 5.4546875 3.22320312 6.171875 3.66015625 C12.83696359 8.15783821 17.63610965 14.68960069 20.0625 22.375 C21.02149078 32.33840942 20.96844329 40.89903528 15.0625 49.375 C14.423125 50.32375 13.78375 51.2725 13.125 52.25 C11.0625 54.375 11.0625 54.375 7.97680664 55.74462891 C4.59232239 58.79936906 4.598257 59.42364014 4.33374023 63.78271484 C4.31438649 66.05040732 4.3290884 68.31855149 4.37109375 70.5859375 C4.37246841 71.78683014 4.37384308 72.98772278 4.3752594 74.2250061 C4.38432263 76.76532885 4.40796949 79.30563512 4.44506836 81.84570312 C4.49969705 85.72846776 4.50659836 89.60907939 4.50585938 93.4921875 C4.52061154 95.960956 4.53809939 98.42970999 4.55859375 100.8984375 C4.56193222 102.05797943 4.56527069 103.21752136 4.56871033 104.41220093 C4.69037664 112.31966895 4.69037664 112.31966895 8.0625 119.375 C12.98408397 122.976159 18.18524602 123.19128527 24.0625 122.375 C29.35913189 120.68805902 33.11930582 118.17131644 36.0625 113.375 C39.47828548 106.17561598 39.53386946 99.57599312 39.57421875 91.6875 C39.60114555 89.74012939 39.60114555 89.74012939 39.62861633 87.75341797 C39.67582599 84.3275042 39.70582174 80.90165492 39.73205566 77.4755249 C39.76200919 73.96923082 39.80848804 70.46315841 39.85351562 66.95703125 C39.93921753 60.0964663 40.00517837 53.23586023 40.0625 46.375 C47.9825 46.375 55.9025 46.375 64.0625 46.375 C64.0625 77.725 64.0625 109.075 64.0625 141.375 C56.4725 141.375 48.8825 141.375 41.0625 141.375 C41.0625 136.755 41.0625 132.135 41.0625 127.375 C40.1034375 128.365 40.1034375 128.365 39.125 129.375 C38.10597887 130.37684661 37.08484303 131.37654348 36.0625 132.375 C35.40765625 133.03757813 34.7528125 133.70015625 34.078125 134.3828125 C26.64661925 141.52443682 20.27384436 143.44741402 10.0625 143.8125 C1.42167715 143.59671398 -5.99077059 141.23419541 -12.40234375 135.27734375 C-18.14665075 128.15908037 -20.07166925 119.60445519 -20.05102539 110.64501953 C-20.05094986 109.54433136 -20.05087433 108.44364319 -20.05079651 107.30960083 C-20.04563522 106.13751068 -20.04047394 104.96542053 -20.03515625 103.7578125 C-20.0337413 102.54551971 -20.03232635 101.33322693 -20.03086853 100.084198 C-20.02528345 96.22277327 -20.01273361 92.36140712 -20 88.5 C-19.99498308 85.87760501 -19.9904205 83.2552091 -19.98632812 80.6328125 C-19.97531889 74.21352178 -19.95859555 67.79426507 -19.9375 61.375 C-20.87916016 61.23328369 -21.82082031 61.09156738 -22.79101562 60.94555664 C-29.23716514 59.77666687 -34.30325976 55.55642986 -38.3125 50.5 C-44.39945469 41.454109 -45.30724469 32.0490181 -43.9375 21.375 C-41.24670604 11.95124161 -34.73413672 5.71502638 -26.4375 0.9375 C-18.14422756 -2.94379312 -8.5695946 -3.48693849 0 0 Z " fill="#040404" transform="translate(173.9375,88.625)"/>
<path d="M0 0 C7.92 0 15.84 0 24 0 C24 24.09 24 48.18 24 73 C24.99 73 25.98 73 27 73 C27.27457031 72.41532959 27.54914063 71.83065918 27.83203125 71.22827148 C28.96334388 69.06993319 30.19915212 67.27256918 31.6875 65.34765625 C32.48172363 64.31511719 32.48172363 64.31511719 33.29199219 63.26171875 C33.85563477 62.53597656 34.41927734 61.81023437 35 61.0625 C35.5765332 60.31484375 36.15306641 59.5671875 36.74707031 58.796875 C37.92576307 57.26867479 39.1057762 55.74149206 40.28710938 54.21533203 C41.87891202 52.15660666 43.46450905 50.09332684 45.046875 48.02734375 C51.84868847 39.15131153 51.84868847 39.15131153 53 38 C54.78071246 37.91273777 56.5648314 37.89300959 58.34765625 37.90234375 C59.42724609 37.90556641 60.50683594 37.90878906 61.61914062 37.91210938 C63.32360352 37.92467773 63.32360352 37.92467773 65.0625 37.9375 C66.77276367 37.94426758 66.77276367 37.94426758 68.51757812 37.95117188 C71.34510351 37.96300253 74.1725264 37.9794859 77 38 C76.39180659 41.29541063 75.26899242 43.26061077 73.19140625 45.87109375 C72.61382568 46.60416748 72.03624512 47.33724121 71.44116211 48.0925293 C70.82120361 48.86636963 70.20124512 49.64020996 69.5625 50.4375 C68.2835897 52.05708287 67.00494562 53.67687599 65.7265625 55.296875 C65.09395508 56.09416016 64.46134766 56.89144531 63.80957031 57.71289062 C60.51928339 61.87147236 57.28750708 66.07379435 54.0703125 70.2890625 C52.80882142 71.94090177 51.53566821 73.5840262 50.2421875 75.2109375 C47.69666632 78.22572148 47.69666632 78.22572148 47.2199707 81.94116211 C48.09481162 84.25024927 49.18338478 85.90586038 50.66796875 87.87890625 C51.22492432 88.62624023 51.78187988 89.37357422 52.35571289 90.14355469 C52.96020264 90.94180664 53.56469238 91.74005859 54.1875 92.5625 C55.46109986 94.26680577 56.73453238 95.97123659 58.0078125 97.67578125 C58.66555664 98.55186035 59.32330078 99.42793945 60.00097656 100.33056641 C63.21248886 104.61911983 66.38670833 108.93496827 69.5625 113.25 C70.13315186 114.02287354 70.70380371 114.79574707 71.29174805 115.59204102 C72.36412481 117.04562971 73.43385579 118.50117535 74.50048828 119.95898438 C75.49410387 121.31141458 76.49761867 122.65663155 77.51123047 123.99414062 C81 128.67195727 81 128.67195727 81 132 C59.15517519 133.77187178 59.15517519 133.77187178 52.828125 130.21875 C50.97546178 127.89214968 49.49777916 125.56867922 48.11279297 122.93994141 C45.75615062 118.83158683 42.72219508 115.15094147 39.875 111.375 C38.72434896 109.80109506 37.57586524 108.22560305 36.4296875 106.6484375 C34.04690722 103.40219154 31.64071809 100.1759576 29.1953125 96.9765625 C28.63086426 96.23744629 28.06641602 95.49833008 27.48486328 94.73681641 C26.09845705 92.88704871 26.09845705 92.88704871 24 92 C24 105.2 24 118.4 24 132 C16.08 132 8.16 132 0 132 C0 88.44 0 44.88 0 0 Z " fill="#020202" transform="translate(413,98)"/>
<path d="M0 0 C7.92 0 15.84 0 24 0 C24.01458252 1.99820801 24.02916504 3.99641602 24.04418945 6.05517578 C24.09460389 12.66902922 24.16121091 19.28264892 24.23571491 25.89627266 C24.28037715 29.90478619 24.31964218 33.91319905 24.34643555 37.921875 C24.37251025 41.79297374 24.4129415 45.66368427 24.46318626 49.53454208 C24.47982694 51.00880975 24.49135864 52.48314452 24.49761391 53.95749283 C24.507286 56.02822485 24.5353794 58.09797 24.56762695 60.16845703 C24.57873001 61.34538116 24.58983307 62.5223053 24.60127258 63.7348938 C25.05138941 67.42081854 26.0797449 69.83681529 28 73 C32.92158397 76.601159 38.12274602 76.81628527 44 76 C49.29663189 74.31305902 53.05680582 71.79631644 56 67 C59.41578548 59.80061598 59.47136946 53.20099312 59.51171875 45.3125 C59.52966995 44.01425293 59.54762115 42.71600586 59.56611633 41.37841797 C59.61332599 37.9525042 59.64332174 34.52665492 59.66955566 31.1005249 C59.69950919 27.59423082 59.74598804 24.08815841 59.79101562 20.58203125 C59.87671753 13.7214663 59.94267837 6.86086023 60 0 C67.92 0 75.84 0 84 0 C84 31.35 84 62.7 84 95 C76.41 95 68.82 95 61 95 C61 90.38 61 85.76 61 81 C60.0409375 81.99 60.0409375 81.99 59.0625 83 C58.04347887 84.00184661 57.02234303 85.00154348 56 86 C55.34515625 86.66257812 54.6903125 87.32515625 54.015625 88.0078125 C46.58411925 95.14943682 40.21134436 97.07241402 30 97.4375 C21.35917715 97.22171398 13.94672941 94.85919541 7.53515625 88.90234375 C1.39379882 81.29206114 -0.1306882 72.40126458 -0.11352539 62.89306641 C-0.11367142 62.20944031 -0.11381744 61.52581421 -0.1139679 60.82147217 C-0.11327608 58.58146901 -0.10551822 56.34155097 -0.09765625 54.1015625 C-0.09578947 52.54072108 -0.09436679 50.97987908 -0.09336853 49.41903687 C-0.08956383 45.3255652 -0.07975116 41.23212943 -0.06866455 37.13867188 C-0.05840628 32.9557341 -0.05386147 28.77279049 -0.04882812 24.58984375 C-0.03812694 16.39321092 -0.02054685 8.19661407 0 0 Z " fill="#050505" transform="translate(208,309)"/>
<path d="M0 0 C0.83563477 0.00644531 1.67126953 0.01289063 2.53222656 0.01953125 C11.43174343 0.28301519 17.31520741 2.78055168 23.5 9.25 C33.53159349 21.87800592 33.64247466 38.0715621 32.625 53.5 C31.15522355 64.09846609 27.36794 74.3393397 18.765625 81.09375 C9.9670152 86.87385863 -0.96448403 86.58758652 -11.08984375 85.1015625 C-18.01123627 83.22828579 -23.54254463 78.37512735 -27.72265625 72.65625 C-28.84615452 70.63993372 -29.63141431 68.68569126 -30.375 66.5 C-30.67148438 65.64664063 -30.96796875 64.79328125 -31.2734375 63.9140625 C-35.47641124 49.22293412 -35.68850356 30.56898016 -29.375 16.5 C-27.66051208 13.48519821 -25.78796176 10.98535062 -23.375 8.5 C-22.900625 8.01015625 -22.42625 7.5203125 -21.9375 7.015625 C-15.60971866 1.16930528 -8.25724123 -0.06656381 0 0 Z " fill="#FCFCFB" transform="translate(128.375,298.5)"/>
<path d="M0 0 C0.83563477 0.00644531 1.67126953 0.01289062 2.53222656 0.01953125 C11.43174343 0.28301519 17.31520741 2.78055168 23.5 9.25 C33.53159349 21.87800592 33.64247466 38.0715621 32.625 53.5 C31.15522355 64.09846609 27.36794 74.3393397 18.765625 81.09375 C9.9670152 86.87385863 -0.96448403 86.58758652 -11.08984375 85.1015625 C-18.01123627 83.22828579 -23.54254463 78.37512735 -27.72265625 72.65625 C-28.84615452 70.63993372 -29.63141431 68.68569126 -30.375 66.5 C-30.67148437 65.64664063 -30.96796875 64.79328125 -31.2734375 63.9140625 C-35.47641124 49.22293412 -35.68850356 30.56898016 -29.375 16.5 C-27.66051208 13.48519821 -25.78796176 10.98535062 -23.375 8.5 C-22.900625 8.01015625 -22.42625 7.5203125 -21.9375 7.015625 C-15.60971866 1.16930528 -8.25724123 -0.06656381 0 0 Z " fill="#FCFCFC" transform="translate(74.375,124.5)"/>
<path d="M0 0 C0.96760254 0.00757324 1.93520508 0.01514648 2.93212891 0.02294922 C14.93890644 0.29917567 24.10916875 3.44968449 32.71484375 11.9453125 C35.66015965 15.20650286 36.91052906 18.29597262 38.1875 22.4375 C35.78179192 24.30760889 33.36475845 26.15824474 30.9375 28 C30.25558594 28.53302734 29.57367188 29.06605469 28.87109375 29.61523438 C27.87529297 30.36450195 27.87529297 30.36450195 26.859375 31.12890625 C25.94816895 31.82802124 25.94816895 31.82802124 25.01855469 32.54125977 C23.1875 33.4375 23.1875 33.4375 21.07519531 33.25756836 C18.06836968 31.95131806 16.97692151 29.12163226 15.1875 26.4375 C8.14621373 21.12061037 1.84520974 20.42425703 -6.8125 21.4375 C-11.5471649 23.16105427 -14.72383665 25.50883734 -17.21484375 29.921875 C-18.24901024 32.40976306 -19.09309931 34.84251894 -19.8125 37.4375 C-20.00199219 38.03175781 -20.19148438 38.62601563 -20.38671875 39.23828125 C-22.26806503 48.95569371 -21.94869734 60.81709862 -16.8125 69.4375 C-12.95212027 73.95652272 -8.54008559 77.02332382 -2.5625 77.6875 C2.93987101 77.95590834 6.73346891 77.18421122 11.49609375 74.41015625 C13.1875 73.4375 13.1875 73.4375 16.1875 72.4375 C17.26004351 70.17524618 17.26004351 70.17524618 18.1875 67.4375 C19.17232022 65.42998185 20.16902514 63.42815541 21.1875 61.4375 C25.72597198 62.78677545 29.50682246 64.62909348 33.5625 67.0625 C34.62210937 67.69414062 35.68171875 68.32578125 36.7734375 68.9765625 C37.57007813 69.45867187 38.36671875 69.94078125 39.1875 70.4375 C37.94654556 79.65975086 32.5321002 86.81184878 25.1875 92.4375 C12.06068022 99.24524736 -1.90263187 100.55133173 -16.13671875 96.41015625 C-27.97735542 92.10604161 -36.17116666 84.64965001 -41.8125 73.4375 C-47.54760598 60.98156669 -48.12654631 42.69980173 -43.7109375 29.67578125 C-43.41445313 28.93714844 -43.11796875 28.19851562 -42.8125 27.4375 C-42.55726563 26.75042969 -42.30203125 26.06335938 -42.0390625 25.35546875 C-37.48390817 14.76160066 -28.33940924 7.00157819 -17.8762207 2.62817383 C-11.87673772 0.38294404 -6.37193803 -0.06982642 0 0 Z " fill="#030303" transform="translate(356.8125,133.5625)"/>
<path d="M0 0 C23.43 0 46.86 0 71 0 C71 22.11324451 71 22.11324451 64.7578125 28.375 C63.84773438 29.24125 62.93765625 30.1075 62 31 C59.99121432 33.24939999 58.06315226 35.56471748 56.125 37.875 C55.10190735 39.06782081 54.07716325 40.25922713 53.05078125 41.44921875 C38.82917034 57.69196338 38.82917034 57.69196338 26 75 C41.18 75 56.36 75 72 75 C72 81.27 72 87.54 72 94 C47.58 94 23.16 94 -2 94 C-2 72.30428743 -2 72.30428743 4.43823242 65.29174805 C5.1397644 64.65813354 5.1397644 64.65813354 5.85546875 64.01171875 C9.05109003 61.00332166 11.83279861 57.7553987 14.625 54.375 C15.54468684 53.28701079 16.46524665 52.19975885 17.38671875 51.11328125 C20.50289464 47.41460004 23.54837616 43.65940821 26.59375 39.90234375 C28.4209468 37.69843592 30.27030535 35.5316128 32.15625 33.37890625 C32.69967041 32.7562085 33.24309082 32.13351074 33.80297852 31.49194336 C34.86802321 30.27545393 35.93857734 29.06375926 37.01538086 27.85766602 C37.50401611 27.29877686 37.99265137 26.7398877 38.49609375 26.1640625 C38.93107178 25.67373535 39.3660498 25.1834082 39.81420898 24.67822266 C41.39073419 22.58497305 41.39073419 22.58497305 43 18 C28.81 18 14.62 18 0 18 C0 12.06 0 6.12 0 0 Z " fill="#010101" transform="translate(363,310)"/>
<path d="M0 0 C1.38052257 0.7447556 2.73645289 1.53708441 4.0625 2.375 C4.75859375 2.79910156 5.4546875 3.22320312 6.171875 3.66015625 C12.83696359 8.15783821 17.63610965 14.68960069 20.0625 22.375 C21.02235447 32.34738275 20.95978085 40.88700617 15.0625 49.375 C14.44375 50.32375 13.825 51.2725 13.1875 52.25 C10.40815625 55.02934375 7.54786048 56.56529359 4.0625 58.375 C4.0625 54.745 4.0625 51.115 4.0625 47.375 C-3.8575 47.375 -11.7775 47.375 -19.9375 47.375 C-19.9375 51.995 -19.9375 56.615 -19.9375 61.375 C-27.90615582 60.0468907 -33.26774202 56.86241864 -38.3125 50.5 C-44.39945469 41.454109 -45.30724469 32.0490181 -43.9375 21.375 C-41.24670604 11.95124161 -34.73413672 5.71502638 -26.4375 0.9375 C-18.14422756 -2.94379312 -8.5695946 -3.48693849 0 0 Z " fill="#DE3922" transform="translate(173.9375,88.625)"/>
<path d="M0 0 C7.92 0 15.84 0 24 0 C24 31.35 24 62.7 24 95 C16.08 95 8.16 95 0 95 C0 63.65 0 32.3 0 0 Z " fill="#060606" transform="translate(265,135)"/>
<path d="M0 0 C7.59 0 15.18 0 23 0 C23 31.02 23 62.04 23 94 C15.41 94 7.82 94 0 94 C0 62.98 0 31.96 0 0 Z " fill="#000000" transform="translate(319,310)"/>
<path d="M0 0 C3.96 0 7.92 0 12 0 C12 36.63 12 73.26 12 111 C6.06 111.33 0.12 111.66 -6 112 C-6.66 112.99 -7.32 113.98 -8 115 C-8.66 110.38 -9.32 105.76 -10 101 C-11.3509375 101.04640625 -12.701875 101.0928125 -14.09375 101.140625 C-15.89581106 101.17816794 -17.69789625 101.21456538 -19.5 101.25 C-20.386875 101.28351563 -21.27375 101.31703125 -22.1875 101.3515625 C-29.65978156 101.46144899 -34.73756703 99.6915072 -40.5 94.9375 C-42 93 -42 93 -42 90 C-40.96101562 89.70867187 -39.92203125 89.41734375 -38.8515625 89.1171875 C-30.49923002 86.69399849 -23.18241361 84.05904133 -16 79 C-15.113125 78.4225 -14.22625 77.845 -13.3125 77.25 C-2.36179923 66.59526412 2.85638697 50.80749287 3.30078125 35.7421875 C3.31932229 33.45319676 3.32274395 31.16404291 3.3125 28.875 C3.31121094 27.68608154 3.30992187 26.49716309 3.30859375 25.2722168 C3.21310645 16.51901518 2.37317622 8.43325121 0 0 Z " fill="#F8E876" transform="translate(182,313)"/>
<path d="M0 0 C8.25 0 16.5 0 25 0 C32.24211007 14.48422013 33.75602302 32.68075082 28.96875 48.39453125 C25.61355287 57.41838804 21.75363965 64.79488288 12.6953125 69.09375 C8.0814631 70.77151342 5.11977959 71 0 71 C0 47.57 0 24.14 0 0 Z " fill="#F8E876" transform="translate(130,313)"/>
<path d="M0 0 C3.91266512 1.96287548 6.10809345 4.66214018 8.5 8.25 C9.47851206 13.63181633 8.88841966 18.9122138 6.75 23.9375 C3.95582631 27.23063328 1.83509271 28.68598885 -2.48828125 29.42578125 C-7.9248541 29.80927394 -11.31696471 29.36852317 -15.5625 25.8125 C-19.62182765 21.66185823 -20.8224132 18.86466135 -21.375 13.0625 C-21.26172607 8.77427275 -19.76592451 6.30374316 -17 3 C-12.16976047 -1.51686829 -6.22694627 -0.93934469 0 0 Z " fill="#648DC9" transform="translate(337,271)"/>
<path d="M0 0 C3.95680195 1.9850177 6.16902099 4.68428323 8.5 8.375 C9.52311934 13.74637654 8.75942984 17.65834061 6.125 22.3125 C1.85263158 27.71578947 1.85263158 27.71578947 -2 29 C-6.57371016 29.53142156 -10.08255211 29.4154481 -14.3125 27.5 C-18.69909784 23.41944387 -21.15239319 18.92335847 -21.5 12.875 C-20.8385137 7.74848118 -18.99739074 4.8678061 -15.25390625 1.3671875 C-10.66680849 -1.41528081 -5.14622777 -0.7763166 0 0 Z " fill="#6085BD" transform="translate(283,97)"/>
<path d="M0 0 C2.86646542 1.60540677 4.9254448 3.46527073 7 6 C6.67 6.66 6.34 7.32 6 8 C5.236875 7.175 4.47375 6.35 3.6875 5.5 C-0.0822905 2.36596989 -3.59405277 2.29190693 -8.3671875 2.5 C-12.48983051 3.28293517 -14.20879103 4.91497956 -17 8 C-18.14814997 10.29629994 -18.30769809 12.07698086 -18.5625 14.625 C-18.64628906 15.44226563 -18.73007812 16.25953125 -18.81640625 17.1015625 C-18.87699219 17.72804688 -18.93757813 18.35453125 -19 19 C-21 17 -21 17 -21.375 13.25 C-21.26364081 8.86722061 -19.83349387 6.38445101 -17 3 C-12.18434469 -1.50323025 -6.21041788 -0.97226202 0 0 Z " fill="#242931" transform="translate(337,271)"/>
</svg>
